# Created by 3DAce v2.72


g
v -0.450000 0.100000 0.450000
v -0.500000 -0.100000 0.500000
v 0.450000 0.100000 0.450000
v 0.500000 -0.100000 0.500000
v 0.450000 0.100000 -0.450000
v 0.500000 -0.100000 -0.500000
v -0.450000 0.100000 -0.450000
v -0.500000 -0.100000 -0.500000
v -0.393750 0.075000 -0.393750
v -0.393750 0.075000 0.393750
v 0.393750 0.075000 0.393750
v 0.393750 0.075000 -0.393750
# 12 vertices

vt 0.010000 0.890000
vt 0.510000 0.890000
vt 0.485000 0.990000
vt 0.035000 0.990000
vt 0.010000 0.770000
vt 0.510000 0.770000
vt 0.485000 0.870000
vt 0.035000 0.870000
vt 0.010000 0.650000
vt 0.510000 0.650000
vt 0.485000 0.750000
vt 0.035000 0.750000
vt 0.010000 0.530000
vt 0.510000 0.530000
vt 0.485000 0.630000
vt 0.035000 0.630000
vt 0.010000 0.010000
vt 0.510000 0.010000
vt 0.510000 0.510000
vt 0.010000 0.510000
vt 0.558120 0.568130
vt 0.558120 0.961870
vt 0.530000 0.990000
vt 0.530000 0.540000
vt 0.980000 0.540000
vt 0.951870 0.568130
vt 0.558120 0.568130
vt 0.530000 0.540000
vt 0.980000 0.990000
vt 0.951870 0.961870
vt 0.951870 0.568130
vt 0.980000 0.540000
vt 0.530000 0.990000
vt 0.558120 0.961870
vt 0.951870 0.961870
vt 0.980000 0.990000
vt 0.558120 0.961870
vt 0.558120 0.568130
vt 0.951870 0.568130
vt 0.951870 0.961870
# 40 texture vertices

vn 0.000000 0.242536 0.970142
vn 0.000000 0.242536 0.970142
vn 0.000000 0.242536 0.970142
vn 0.000000 0.242536 0.970142
vn 0.970142 0.242536 0.000000
vn 0.970142 0.242536 0.000000
vn 0.970142 0.242536 0.000000
vn 0.970142 0.242536 0.000000
vn 0.000000 0.242536 -0.970142
vn 0.000000 0.242536 -0.970142
vn 0.000000 0.242536 -0.970142
vn 0.000000 0.242536 -0.970142
vn -0.970142 0.242536 0.000000
vn -0.970142 0.242536 0.000000
vn -0.970142 0.242536 0.000000
vn -0.970142 0.242536 0.000000
vn 0.000000 -1.000000 0.000000
vn 0.000000 -1.000000 0.000000
vn 0.000000 -1.000000 0.000000
vn 0.000000 -1.000000 0.000000
vn 0.140758 0.979987 -0.140758
vn 0.140758 0.979987 0.140758
vn 0.212000 0.953998 0.212000
vn 0.212000 0.953998 -0.212000
vn -0.212000 0.953998 -0.212000
vn -0.140758 0.979987 -0.140758
vn 0.140758 0.979987 -0.140758
vn 0.212000 0.953998 -0.212000
vn -0.212000 0.953998 0.212000
vn -0.140758 0.979987 0.140758
vn -0.140758 0.979987 -0.140758
vn -0.212000 0.953998 -0.212000
vn 0.212000 0.953998 0.212000
vn 0.140758 0.979987 0.140758
vn -0.140758 0.979987 0.140758
vn -0.212000 0.953998 0.212000
vn 0.140758 0.979987 0.140758
vn 0.140758 0.979987 -0.140758
vn -0.140758 0.979987 -0.140758
vn -0.140758 0.979987 0.140758
# 40 vertex normals

g mat1
f 2/1/1 4/2/2 3/3/3 1/4/4
f 4/5/5 6/6/6 5/7/7 3/8/8
f 6/9/9 8/10/10 7/11/11 5/12/12
f 8/13/13 2/14/14 1/15/15 7/16/16
f 8/17/17 6/18/18 4/19/19 2/20/20
f 10/21/21 9/22/22 7/23/23 1/24/24
f 3/25/25 11/26/26 10/27/27 1/28/28
f 5/29/29 12/30/30 11/31/31 3/32/32
f 7/33/33 9/34/34 12/35/35 5/36/36
f 9/37/37 10/38/38 11/39/39 12/40/40
# 10 elements

