# Created by 3DAce v2.72


g
v -0.400000 0.350000 0.050000
v -0.400000 -0.350000 0.075000
v 0.400000 0.350000 0.050000
v 0.400000 -0.350000 0.075000
v 0.400000 0.350000 -0.050000
v 0.400000 -0.350000 -0.050000
v -0.400000 0.350000 -0.050000
v -0.400000 -0.350000 -0.050000
v -0.400000 -0.150000 0.050000
v 0.400000 -0.150000 0.050000
v 0.400000 -0.150000 -0.050000
v -0.400000 -0.150000 -0.050000
v -0.400000 -0.250000 0.075000
v 0.400000 -0.250000 0.075000
v 0.400000 -0.250000 -0.050000
v -0.400000 -0.250000 -0.050000
v -0.400000 0.000000 0.050000
v 0.400000 0.000000 0.050000
v 0.400000 0.000000 -0.050000
v -0.400000 0.000000 -0.050000
v -0.400000 0.100000 0.125000
v 0.400000 0.100000 0.125000
v 0.400000 0.100000 -0.050000
v -0.400000 0.100000 -0.050000
v -0.400000 0.200000 0.125000
v 0.400000 0.200000 0.125000
v 0.400000 0.200000 -0.050000
v -0.400000 0.200000 -0.050000
v -0.400000 0.200000 0.050000
v 0.400000 0.200000 0.050000
# 30 vertices

vt 0.009620 0.930290
vt 0.490380 0.930290
vt 0.490380 0.990380
vt 0.009620 0.990380
vt 0.009620 0.835940
vt 0.490380 0.835940
vt 0.490380 0.911060
vt 0.009620 0.911060
vt 0.009620 0.546270
vt 0.009620 0.486180
vt 0.490380 0.486180
vt 0.490380 0.546270
vt 0.490380 0.606370
vt 0.009620 0.606370
vt 0.009620 0.546270
vt 0.490380 0.546270
vt 0.539660 0.196510
vt 0.539660 0.136420
vt 0.614780 0.136420
vt 0.614780 0.196510
vt 0.614780 0.256610
vt 0.554690 0.256610
vt 0.539660 0.196510
vt 0.614780 0.196510
vt 0.009620 0.106370
vt 0.009620 0.046270
vt 0.490380 0.046270
vt 0.490380 0.106370
vt 0.490380 0.166470
vt 0.009620 0.166470
vt 0.009620 0.106370
vt 0.490380 0.106370
vt 0.509620 0.610580
vt 0.509620 0.550480
vt 0.584740 0.550480
vt 0.584740 0.610580
vt 0.569710 0.670670
vt 0.509620 0.670670
vt 0.509620 0.610580
vt 0.584740 0.610580
vt 0.009620 0.606370
vt 0.490380 0.606370
vt 0.490380 0.696510
vt 0.009620 0.696510
vt 0.554690 0.256610
vt 0.614780 0.256610
vt 0.614780 0.346750
vt 0.554690 0.346750
vt 0.009620 0.166470
vt 0.490380 0.166470
vt 0.490380 0.256610
vt 0.009620 0.256610
vt 0.509620 0.670670
vt 0.569710 0.670670
vt 0.569710 0.760820
vt 0.509620 0.760820
vt 0.009620 0.696510
vt 0.490380 0.696510
vt 0.490380 0.756610
vt 0.009620 0.756610
vt 0.554690 0.346750
vt 0.614780 0.346750
vt 0.614780 0.406850
vt 0.509620 0.406850
vt 0.009620 0.256610
vt 0.490380 0.256610
vt 0.490380 0.316710
vt 0.009620 0.316710
vt 0.509620 0.760820
vt 0.569710 0.760820
vt 0.614780 0.820910
vt 0.509620 0.820910
vt 0.009620 0.756610
vt 0.490380 0.756610
vt 0.490380 0.816710
vt 0.009620 0.816710
vt 0.509620 0.406850
vt 0.614780 0.406850
vt 0.614780 0.466950
vt 0.509620 0.466950
vt 0.009620 0.316710
vt 0.490380 0.316710
vt 0.490380 0.376800
vt 0.009620 0.376800
vt 0.509620 0.820910
vt 0.614780 0.820910
vt 0.614780 0.881010
vt 0.509620 0.881010
vt 0.990380 0.900240
vt 0.990380 0.990380
vt 0.509620 0.990380
vt 0.509620 0.900240
vt 0.509620 0.771630
vt 0.990380 0.771630
vt 0.990380 0.816710
vt 0.509620 0.816710
vt 0.694110 0.376800
vt 0.694110 0.466950
vt 0.634010 0.466950
vt 0.634010 0.376800
vt 0.490380 0.376800
vt 0.490380 0.466950
vt 0.009620 0.466950
vt 0.009620 0.376800
vt 0.773440 0.376800
vt 0.773440 0.466950
vt 0.713340 0.466950
vt 0.713340 0.376800
# 108 texture vertices

vn 0.000000 1.000000 0.000000
vn 0.000000 1.000000 0.000000
vn 0.000000 1.000000 0.000000
vn 0.000000 1.000000 0.000000
vn 0.000000 -1.000000 0.000000
vn 0.000000 -1.000000 0.000000
vn 0.000000 -1.000000 0.000000
vn 0.000000 -1.000000 0.000000
vn 0.000000 0.122183 0.992508
vn 0.000000 0.000000 1.000000
vn 0.000000 0.000000 1.000000
vn 0.000000 0.122183 0.992508
vn 0.000000 0.122183 0.992508
vn 0.000000 0.122183 0.992508
vn 0.000000 0.122183 0.992508
vn 0.000000 0.122183 0.992508
vn 1.000000 0.000000 0.000000
vn 1.000000 0.000000 0.000000
vn 1.000000 0.000000 0.000000
vn 1.000000 0.000000 0.000000
vn 1.000000 0.000000 0.000000
vn 1.000000 0.000000 0.000000
vn 1.000000 0.000000 0.000000
vn 1.000000 0.000000 0.000000
vn 0.000000 0.000000 -1.000000
vn 0.000000 0.000000 -1.000000
vn 0.000000 0.000000 -1.000000
vn 0.000000 0.000000 -1.000000
vn 0.000000 0.000000 -1.000000
vn 0.000000 0.000000 -1.000000
vn 0.000000 0.000000 -1.000000
vn 0.000000 0.000000 -1.000000
vn -1.000000 0.000000 0.000000
vn -1.000000 -0.000000 0.000000
vn -1.000000 -0.000000 0.000000
vn -1.000000 0.000000 0.000000
vn -1.000000 0.000000 0.000000
vn -1.000000 0.000000 0.000000
vn -1.000000 0.000000 0.000000
vn -1.000000 0.000000 0.000000
vn 0.000000 0.122183 0.992508
vn 0.000000 0.122183 0.992508
vn 0.000000 -0.316228 0.948683
vn 0.000000 -0.316228 0.948683
vn 1.000000 0.000000 0.000000
vn 1.000000 0.000000 0.000000
vn 1.000000 0.000000 0.000000
vn 1.000000 0.000000 0.000000
vn 0.000000 0.000000 -1.000000
vn 0.000000 0.000000 -1.000000
vn -0.000000 0.000000 -1.000000
vn -0.000000 0.000000 -1.000000
vn -1.000000 0.000000 0.000000
vn -1.000000 0.000000 0.000000
vn -1.000000 0.000000 0.000000
vn -1.000000 0.000000 0.000000
vn 0.000000 -0.316228 0.948683
vn 0.000000 -0.316228 0.948683
vn 0.000000 -0.316228 0.948683
vn 0.000000 -0.316228 0.948683
vn 1.000000 0.000000 0.000000
vn 1.000000 0.000000 0.000000
vn 1.000000 0.000000 0.000000
vn 1.000000 0.000000 0.000000
vn -0.000000 0.000000 -1.000000
vn -0.000000 0.000000 -1.000000
vn -0.000000 0.000000 -1.000000
vn -0.000000 0.000000 -1.000000
vn -1.000000 0.000000 0.000000
vn -1.000000 0.000000 0.000000
vn -1.000000 0.000000 0.000000
vn -1.000000 0.000000 0.000000
vn 0.000000 -0.316228 0.948683
vn 0.000000 -0.316228 0.948683
vn -0.000000 0.000000 1.000000
vn -0.000000 0.000000 1.000000
vn 1.000000 0.000000 0.000000
vn 1.000000 0.000000 0.000000
vn 1.000000 0.000000 0.000000
vn 1.000000 0.000000 0.000000
vn -0.000000 0.000000 -1.000000
vn -0.000000 0.000000 -1.000000
vn 0.000000 0.000000 -1.000000
vn 0.000000 0.000000 -1.000000
vn -1.000000 0.000000 0.000000
vn -1.000000 0.000000 0.000000
vn -1.000000 0.000000 0.000000
vn -1.000000 0.000000 0.000000
vn 0.000000 0.000000 1.000000
vn 0.000000 0.000000 1.000000
vn 0.000000 0.000000 1.000000
vn 0.000000 0.000000 1.000000
vn 0.000000 1.000000 0.000000
vn 0.000000 1.000000 0.000000
vn 0.000000 1.000000 0.000000
vn 0.000000 1.000000 0.000000
vn 1.000000 0.000000 0.000000
vn 1.000000 -0.000000 0.000000
vn 1.000000 -0.000000 0.000000
vn 1.000000 -0.000000 0.000000
vn 0.000000 0.000000 -1.000000
vn 0.000000 0.000000 -1.000000
vn 0.000000 0.000000 -1.000000
vn 0.000000 0.000000 -1.000000
vn -1.000000 0.000000 0.000000
vn -1.000000 0.000000 0.000000
vn -1.000000 0.000000 0.000000
vn -1.000000 0.000000 0.000000
# 108 vertex normals

g mat1
f 1/1/1 3/2/2 5/3/3 7/4/4
f 8/5/5 6/6/6 4/7/7 2/8/8
f 13/9/9 2/10/10 4/11/11 14/12/12
f 10/13/13 9/14/14 13/15/15 14/16/16
f 14/17/17 4/18/18 6/19/19 15/20/20
f 11/21/21 10/22/22 14/23/23 15/24/24
f 15/25/25 6/26/26 8/27/27 16/28/28
f 12/29/29 11/30/30 15/31/31 16/32/32
f 16/33/33 8/34/34 2/35/35 13/36/36
f 9/37/37 12/38/38 16/39/39 13/40/40
f 9/41/41 10/42/42 18/43/43 17/44/44
f 10/45/45 11/46/46 19/47/47 18/48/48
f 11/49/49 12/50/50 20/51/51 19/52/52
f 12/53/53 9/54/54 17/55/55 20/56/56
f 17/57/57 18/58/58 22/59/59 21/60/60
f 18/61/61 19/62/62 23/63/63 22/64/64
f 19/65/65 20/66/66 24/67/67 23/68/68
f 20/69/69 17/70/70 21/71/71 24/72/72
f 21/73/73 22/74/74 26/75/75 25/76/76
f 22/77/77 23/78/78 27/79/79 26/80/80
f 23/81/81 24/82/82 28/83/83 27/84/84
f 24/85/85 21/86/86 25/87/87 28/88/88
f 30/89/89 3/90/90 1/91/91 29/92/92
f 25/93/93 26/94/94 30/95/95 29/96/96
f 27/97/97 5/98/98 3/99/99 30/100/100
f 28/101/101 7/102/102 5/103/103 27/104/104
f 29/105/105 1/106/106 7/107/107 28/108/108
# 27 elements

