# Created by 3DAce v2.72


g
v 0.050000 0.350000 0.050000
v -0.050000 0.350000 0.050000
v -0.050000 0.350000 -0.050000
v 0.050000 0.350000 -0.050000
v -0.037500 0.350000 0.037500
v 0.037500 0.350000 0.037500
v 0.037500 0.350000 -0.037500
v -0.037500 0.350000 -0.037500
v -0.037500 0.367088 0.037500
v 0.037500 0.367088 0.037500
v 0.037500 0.367088 -0.037500
v -0.037500 0.367088 -0.037500
v 0.050000 -0.350000 0.050000
v 0.050000 -0.350000 -0.050000
v -0.050000 -0.350000 0.050000
v -0.050000 -0.350000 -0.050000
v -0.037500 -0.350000 0.037500
v 0.037500 -0.350000 0.037500
v -0.037500 -0.350000 -0.037500
v 0.037500 -0.350000 -0.037500
v -0.037500 -0.326608 0.037500
v 0.037500 -0.326608 0.037500
v -0.037500 -0.326608 -0.037500
v 0.037500 -0.326608 -0.037500
# 24 vertices

vt 0.293820 0.814330
vt 0.304920 0.805760
vt 0.304920 0.874370
vt 0.293820 0.865800
vt 0.293820 0.865800
vt 0.304920 0.874370
vt 0.216130 0.874370
vt 0.227220 0.865800
vt 0.304920 0.805760
vt 0.293820 0.814330
vt 0.227220 0.814330
vt 0.216130 0.805760
vt 0.216130 0.805760
vt 0.227220 0.814330
vt 0.227220 0.865800
vt 0.216130 0.874370
vt 0.049710 0.953840
vt 0.152630 0.953840
vt 0.152630 0.977290
vt 0.049710 0.977290
vt 0.049710 0.953840
vt 0.152630 0.953840
vt 0.152630 0.977290
vt 0.049710 0.977290
vt 0.049710 0.953840
vt 0.152630 0.953840
vt 0.152630 0.977290
vt 0.049710 0.977290
vt 0.049710 0.953840
vt 0.152630 0.953840
vt 0.152630 0.977290
vt 0.049710 0.977290
vt 0.216620 0.619370
vt 0.298530 0.619370
vt 0.298530 0.701080
vt 0.216620 0.701080
vt 0.216620 0.619370
vt 0.298530 0.619370
vt 0.298530 0.701080
vt 0.216620 0.701080
vt 0.216620 0.619370
vt 0.298530 0.619370
vt 0.298530 0.701080
vt 0.216620 0.701080
vt 0.216620 0.619370
vt 0.298530 0.619370
vt 0.298530 0.701080
vt 0.216620 0.701080
vt 0.216520 0.779670
vt 0.216520 0.722490
vt 0.279670 0.722490
vt 0.279670 0.779670
vt 0.024870 0.413920
vt 0.164350 0.413920
vt 0.164350 0.990000
vt 0.024870 0.990000
vt 0.164350 0.990000
vt 0.024870 0.990000
vt 0.024870 0.413920
vt 0.164350 0.413920
vt 0.164350 0.990000
vt 0.024870 0.990000
vt 0.024870 0.413920
vt 0.164350 0.413920
vt 0.024870 0.413920
vt 0.164350 0.413920
vt 0.164350 0.990000
vt 0.024870 0.990000
vt 0.984200 0.706680
vt 0.984200 0.983500
vt 0.702980 0.983500
vt 0.702980 0.706680
vt 0.210980 0.987300
vt 0.210980 0.906970
vt 0.222760 0.917010
vt 0.222760 0.977260
vt 0.210980 0.906970
vt 0.305190 0.906970
vt 0.293410 0.917010
vt 0.222760 0.917010
vt 0.305190 0.906970
vt 0.305190 0.987300
vt 0.293410 0.977260
vt 0.293410 0.917010
vt 0.222760 0.977260
vt 0.293410 0.977260
vt 0.305190 0.987300
vt 0.210980 0.987300
# 88 texture vertices

vn 0.000000 1.000000 0.000000
vn 0.000000 1.000000 0.000000
vn 0.000000 1.000000 0.000000
vn 0.000000 1.000000 0.000000
vn 0.000000 1.000000 0.000000
vn 0.000000 1.000000 0.000000
vn 0.000000 1.000000 0.000000
vn 0.000000 1.000000 0.000000
vn 0.000000 1.000000 0.000000
vn 0.000000 1.000000 0.000000
vn 0.000000 1.000000 0.000000
vn 0.000000 1.000000 0.000000
vn 0.000000 1.000000 0.000000
vn 0.000000 1.000000 0.000000
vn 0.000000 1.000000 0.000000
vn 0.000000 1.000000 0.000000
vn -1.000000 0.000000 0.000000
vn -1.000000 0.000000 0.000000
vn -1.000000 0.000000 0.000000
vn -1.000000 0.000000 0.000000
vn -0.000000 0.000000 -1.000000
vn -0.000000 0.000000 -1.000000
vn -0.000000 0.000000 -1.000000
vn -0.000000 0.000000 -1.000000
vn -0.000000 0.000000 1.000000
vn -0.000000 0.000000 1.000000
vn -0.000000 0.000000 1.000000
vn -0.000000 0.000000 1.000000
vn 1.000000 0.000000 0.000000
vn 1.000000 0.000000 0.000000
vn 1.000000 0.000000 0.000000
vn 1.000000 0.000000 0.000000
vn -1.000000 0.000000 0.000000
vn -1.000000 0.000000 0.000000
vn -1.000000 0.000000 0.000000
vn -1.000000 0.000000 0.000000
vn -0.000000 0.000000 1.000000
vn -0.000000 0.000000 1.000000
vn -0.000000 0.000000 1.000000
vn -0.000000 0.000000 1.000000
vn 1.000000 0.000000 0.000000
vn 1.000000 0.000000 0.000000
vn 1.000000 0.000000 0.000000
vn 1.000000 0.000000 0.000000
vn -0.000000 0.000000 -1.000000
vn -0.000000 0.000000 -1.000000
vn -0.000000 0.000000 -1.000000
vn -0.000000 0.000000 -1.000000
vn 0.000000 -1.000000 -0.000000
vn 0.000000 -1.000000 -0.000000
vn 0.000000 -1.000000 -0.000000
vn 0.000000 -1.000000 -0.000000
vn -0.000000 0.000000 1.000000
vn -0.000000 0.000000 1.000000
vn -0.000000 0.000000 1.000000
vn -0.000000 0.000000 1.000000
vn 1.000000 0.000000 0.000000
vn 1.000000 0.000000 0.000000
vn 1.000000 0.000000 0.000000
vn 1.000000 0.000000 0.000000
vn 0.000000 0.000000 -1.000000
vn 0.000000 0.000000 -1.000000
vn 0.000000 0.000000 -1.000000
vn 0.000000 0.000000 -1.000000
vn -1.000000 0.000000 0.000000
vn -1.000000 0.000000 0.000000
vn -1.000000 0.000000 0.000000
vn -1.000000 0.000000 0.000000
vn 0.000000 1.000000 0.000000
vn 0.000000 1.000000 0.000000
vn 0.000000 1.000000 0.000000
vn 0.000000 1.000000 0.000000
vn 0.000000 -1.000000 0.000000
vn 0.000000 -1.000000 0.000000
vn 0.000000 -1.000000 0.000000
vn 0.000000 -1.000000 0.000000
vn 0.000000 -1.000000 0.000000
vn 0.000000 -1.000000 0.000000
vn 0.000000 -1.000000 0.000000
vn 0.000000 -1.000000 0.000000
vn 0.000000 -1.000000 0.000000
vn 0.000000 -1.000000 0.000000
vn 0.000000 -1.000000 0.000000
vn 0.000000 -1.000000 0.000000
vn 0.000000 -1.000000 0.000000
vn 0.000000 -1.000000 0.000000
vn 0.000000 -1.000000 0.000000
vn 0.000000 -1.000000 0.000000
# 88 vertex normals

g mat1
f 6/1/1 1/2/2 4/3/3 7/4/4
f 7/5/5 4/6/6 3/7/7 8/8/8
f 1/9/9 6/10/10 5/11/11 2/12/12
f 2/13/13 5/14/14 8/15/15 3/16/16
f 8/17/17 5/18/18 9/19/19 12/20/20
f 7/21/21 8/22/22 12/23/23 11/24/24
f 5/25/25 6/26/26 10/27/27 9/28/28
f 6/29/29 7/30/30 11/31/31 10/32/32
f 20/33/33 18/34/34 22/35/35 24/36/36
f 19/37/37 20/38/38 24/39/39 23/40/40
f 17/41/41 19/42/42 23/43/43 21/44/44
f 18/45/45 17/46/46 21/47/47 22/48/48
f 21/49/49 23/50/50 24/51/51 22/52/52
f 15/53/53 13/54/54 1/55/55 2/56/56
f 4/57/57 1/58/58 13/59/59 14/60/60
f 3/61/61 4/62/62 14/63/63 16/64/64
f 16/65/65 15/66/66 2/67/67 3/68/68
f 10/69/69 11/70/70 12/71/71 9/72/72
f 15/73/73 16/74/74 19/75/75 17/76/76
f 16/77/77 14/78/78 20/79/79 19/80/80
f 14/81/81 13/82/82 18/83/83 20/84/84
f 17/85/85 18/86/86 13/87/87 15/88/88
# 22 elements

