# Created by 3DAce v2.72


g
v -0.350000 0.350000 0.050000
v -0.350000 -0.350000 0.050000
v 0.350000 0.350000 0.050000
v 0.350000 0.350000 -0.050000
v -0.350000 0.350000 -0.050000
v -0.350000 -0.300000 0.050000
v 0.350000 -0.300000 0.050000
v 0.350000 -0.300000 -0.050000
v -0.350000 -0.300000 -0.050000
v -0.350000 0.300000 0.050000
v 0.350000 0.300000 0.050000
v 0.350000 0.300000 -0.050000
v -0.350000 0.300000 -0.050000
v 0.012500 0.377135 0.037500
v 0.012500 0.350000 0.037500
v 0.087500 0.377135 0.037500
v 0.087500 0.350000 0.037500
v 0.087500 0.377135 -0.037500
v 0.087500 0.350000 -0.037500
v 0.012500 0.377135 -0.037500
v 0.012500 0.350000 -0.037500
v -0.350000 -0.350000 -0.050000
v 0.350000 -0.350000 -0.050000
v 0.337500 -0.350000 -0.037500
v 0.350000 -0.350000 0.050000
v -0.335000 -0.350000 -0.037500
v -0.335000 -0.350000 0.037500
v 0.337500 -0.350000 0.037500
v 0.337500 -0.322841 -0.037500
v -0.335000 -0.322841 -0.037500
v -0.335000 -0.322841 0.037500
v 0.337500 -0.322841 0.037500
v 0.112500 0.377135 0.037500
v 0.112500 0.350000 0.037500
v 0.187500 0.377135 0.037500
v 0.187500 0.350000 0.037500
v 0.187500 0.377135 -0.037500
v 0.187500 0.350000 -0.037500
v 0.112500 0.377135 -0.037500
v 0.112500 0.350000 -0.037500
v 0.212500 0.377135 0.037500
v 0.212500 0.350000 0.037500
v 0.287500 0.377135 0.037500
v 0.287500 0.350000 0.037500
v 0.287500 0.377135 -0.037500
v 0.287500 0.350000 -0.037500
v 0.212500 0.377135 -0.037500
v 0.212500 0.350000 -0.037500
v -0.287500 0.377135 0.037500
v -0.287500 0.350000 0.037500
v -0.212500 0.377135 0.037500
v -0.212500 0.350000 0.037500
v -0.212500 0.377135 -0.037500
v -0.212500 0.350000 -0.037500
v -0.287500 0.377135 -0.037500
v -0.287500 0.350000 -0.037500
v -0.187500 0.377135 0.037500
v -0.187500 0.350000 0.037500
v -0.112500 0.377135 0.037500
v -0.112500 0.350000 0.037500
v -0.112500 0.377135 -0.037500
v -0.112500 0.350000 -0.037500
v -0.187500 0.377135 -0.037500
v -0.187500 0.350000 -0.037500
v -0.087500 0.377135 0.037500
v -0.087500 0.350000 0.037500
v -0.012500 0.377135 0.037500
v -0.012500 0.350000 0.037500
v -0.012500 0.377135 -0.037500
v -0.012500 0.350000 -0.037500
v -0.087500 0.377135 -0.037500
v -0.087500 0.350000 -0.037500
v -0.350000 0.250000 0.000000
v 0.350000 0.250000 0.000000
v 0.350000 0.250000 -0.050000
v -0.350000 0.250000 -0.050000
v -0.350000 -0.250000 0.000000
v 0.350000 -0.250000 0.000000
v 0.350000 -0.250000 -0.050000
v -0.350000 -0.250000 -0.050000
v -0.200000 0.150000 0.025000
v -0.200000 -0.100000 0.025000
v 0.200000 -0.100000 -0.050000
v 0.200000 -0.100000 0.025000
v 0.200000 0.150000 -0.050000
v 0.200000 0.150000 0.025000
v -0.200000 -0.100000 -0.050000
v -0.200000 0.150000 -0.050000
v 0.250000 0.175000 0.000000
v 0.250000 -0.125000 0.000000
v -0.250000 -0.125000 0.000000
v -0.250000 0.175000 0.000000
# 92 vertices

vt 0.465490 0.828320
vt 0.527930 0.828320
vt 0.527930 0.886360
vt 0.465490 0.886360
vt 0.164330 0.891040
vt 0.164330 0.924200
vt 0.032480 0.924200
vt 0.032480 0.891040
vt 0.174910 0.888450
vt 0.175080 0.933160
vt 0.025980 0.933440
vt 0.025910 0.888460
vt 0.175400 0.929630
vt 0.175400 0.933190
vt 0.025650 0.933190
vt 0.025650 0.929630
vt 0.025910 0.888460
vt 0.025980 0.933440
vt 0.175080 0.933160
vt 0.174910 0.888450
vt 0.460320 0.891020
vt 0.460320 0.827120
vt 0.528840 0.827120
vt 0.528840 0.891020
vt 0.086010 0.897800
vt 0.086010 0.916020
vt 0.119170 0.916020
vt 0.119170 0.897800
vt 0.025650 0.890440
vt 0.025650 0.886870
vt 0.175400 0.886870
vt 0.175400 0.890440
vt 0.119170 0.897800
vt 0.119170 0.916020
vt 0.086010 0.916020
vt 0.086010 0.897800
vt 0.529210 0.724300
vt 0.529210 0.798930
vt 0.456120 0.798930
vt 0.456120 0.724300
vt 0.119170 0.916020
vt 0.119170 0.897800
vt 0.086010 0.897800
vt 0.086010 0.916020
vt 0.175400 0.926070
vt 0.175400 0.929630
vt 0.025650 0.929630
vt 0.025650 0.926070
vt 0.086010 0.916020
vt 0.086010 0.897800
vt 0.119170 0.897800
vt 0.119170 0.916020
vt 0.071780 0.782460
vt 0.121530 0.782460
vt 0.121530 0.800460
vt 0.071780 0.800460
vt 0.071780 0.782460
vt 0.121530 0.782460
vt 0.121530 0.800460
vt 0.071780 0.800460
vt 0.071780 0.782460
vt 0.121530 0.782460
vt 0.121530 0.800460
vt 0.071780 0.800460
vt 0.071780 0.782460
vt 0.121530 0.782460
vt 0.121530 0.800460
vt 0.071780 0.800460
vt 0.721530 0.097460
vt 0.970970 0.097460
vt 0.970970 0.346890
vt 0.721530 0.346890
vt 0.525730 0.728460
vt 0.517440 0.736750
vt 0.469450 0.736750
vt 0.459500 0.728460
vt 0.469450 0.786500
vt 0.459500 0.794790
vt 0.459500 0.728460
vt 0.469450 0.736750
vt 0.525730 0.728460
vt 0.525730 0.794790
vt 0.517440 0.786500
vt 0.517440 0.736750
vt 0.469450 0.786500
vt 0.517440 0.786500
vt 0.525730 0.794790
vt 0.459500 0.794790
vt 0.032840 0.923730
vt 0.032840 0.890570
vt 0.165410 0.890570
vt 0.165410 0.923730
vt 0.025600 0.926760
vt 0.175110 0.926430
vt 0.174940 0.882390
vt 0.025670 0.882390
vt 0.025650 0.883310
vt 0.175400 0.883310
vt 0.175400 0.886870
vt 0.025650 0.886870
vt 0.025600 0.926760
vt 0.025670 0.882390
vt 0.174940 0.882390
vt 0.175110 0.926430
vt 0.458880 0.607210
vt 0.533890 0.607210
vt 0.533890 0.694570
vt 0.458880 0.694570
vt 0.458880 0.607210
vt 0.533890 0.607210
vt 0.533890 0.694570
vt 0.458880 0.694570
vt 0.458880 0.607210
vt 0.533890 0.607210
vt 0.533890 0.694570
vt 0.458880 0.694570
vt 0.458880 0.607210
vt 0.533890 0.607210
vt 0.533890 0.694570
vt 0.458880 0.694570
vt 0.220230 0.775790
vt 0.220230 0.726050
vt 0.283090 0.726050
vt 0.283090 0.775790
vt 0.071780 0.782460
vt 0.121530 0.782460
vt 0.121530 0.800460
vt 0.071780 0.800460
vt 0.071780 0.782460
vt 0.121530 0.782460
vt 0.121530 0.800460
vt 0.071780 0.800460
vt 0.071780 0.782460
vt 0.121530 0.782460
vt 0.121530 0.800460
vt 0.071780 0.800460
vt 0.071780 0.782460
vt 0.121530 0.782460
vt 0.121530 0.800460
vt 0.071780 0.800460
vt 0.721530 0.097460
vt 0.970970 0.097460
vt 0.970970 0.346890
vt 0.721530 0.346890
vt 0.071780 0.782460
vt 0.121530 0.782460
vt 0.121530 0.800460
vt 0.071780 0.800460
vt 0.071780 0.782460
vt 0.121530 0.782460
vt 0.121530 0.800460
vt 0.071780 0.800460
vt 0.071780 0.782460
vt 0.121530 0.782460
vt 0.121530 0.800460
vt 0.071780 0.800460
vt 0.071780 0.782460
vt 0.121530 0.782460
vt 0.121530 0.800460
vt 0.071780 0.800460
vt 0.721530 0.097460
vt 0.970970 0.097460
vt 0.970970 0.346890
vt 0.721530 0.346890
vt 0.071780 0.782460
vt 0.121530 0.782460
vt 0.121530 0.800460
vt 0.071780 0.800460
vt 0.071780 0.782460
vt 0.121530 0.782460
vt 0.121530 0.800460
vt 0.071780 0.800460
vt 0.071780 0.782460
vt 0.121530 0.782460
vt 0.121530 0.800460
vt 0.071780 0.800460
vt 0.071780 0.782460
vt 0.121530 0.782460
vt 0.121530 0.800460
vt 0.071780 0.800460
vt 0.721530 0.097460
vt 0.970970 0.097460
vt 0.970970 0.346890
vt 0.721530 0.346890
vt 0.071780 0.782460
vt 0.121530 0.782460
vt 0.121530 0.800460
vt 0.071780 0.800460
vt 0.071780 0.782460
vt 0.121530 0.782460
vt 0.121530 0.800460
vt 0.071780 0.800460
vt 0.071780 0.782460
vt 0.121530 0.782460
vt 0.121530 0.800460
vt 0.071780 0.800460
vt 0.071780 0.782460
vt 0.121530 0.782460
vt 0.121530 0.800460
vt 0.071780 0.800460
vt 0.721530 0.097460
vt 0.970970 0.097460
vt 0.970970 0.346890
vt 0.721530 0.346890
vt 0.071780 0.782460
vt 0.121530 0.782460
vt 0.121530 0.800460
vt 0.071780 0.800460
vt 0.071780 0.782460
vt 0.121530 0.782460
vt 0.121530 0.800460
vt 0.071780 0.800460
vt 0.071780 0.782460
vt 0.121530 0.782460
vt 0.121530 0.800460
vt 0.071780 0.800460
vt 0.071780 0.782460
vt 0.121530 0.782460
vt 0.121530 0.800460
vt 0.071780 0.800460
vt 0.721530 0.097460
vt 0.970970 0.097460
vt 0.970970 0.346890
vt 0.721530 0.346890
vt 0.119170 0.916020
vt 0.086010 0.916020
vt 0.086010 0.897800
vt 0.119170 0.897800
vt 0.086010 0.916020
vt 0.119170 0.916020
vt 0.119170 0.897800
vt 0.086010 0.897800
vt 0.175400 0.926070
vt 0.143310 0.918940
vt 0.143310 0.901120
vt 0.175400 0.890440
vt 0.025650 0.926070
vt 0.025650 0.890440
vt 0.057740 0.901120
vt 0.057740 0.918940
vt 0.463460 0.833260
vt 0.523590 0.833260
vt 0.523590 0.883000
vt 0.463460 0.883000
vt 0.461310 0.734310
vt 0.522870 0.734310
vt 0.522870 0.784060
vt 0.461310 0.784060
vt 0.025730 0.774630
vt 0.175020 0.774630
vt 0.175020 0.808440
vt 0.025730 0.808440
vt 0.025730 0.774630
vt 0.175020 0.774630
vt 0.175020 0.808440
vt 0.025730 0.808440
vt 0.025650 0.933190
vt 0.175400 0.933190
vt 0.174940 0.882390
vt 0.025650 0.883310
vt 0.025650 0.883310
vt 0.174940 0.882390
vt 0.175400 0.933190
vt 0.025650 0.933190
vt 0.047060 0.783080
vt 0.047060 0.803360
vt 0.025730 0.808440
vt 0.025730 0.774630
vt 0.153690 0.803360
vt 0.153690 0.783080
vt 0.175020 0.774630
vt 0.175020 0.808440
vt 0.047060 0.803360
vt 0.153690 0.803360
vt 0.175020 0.808440
vt 0.025730 0.808440
vt 0.025730 0.774630
vt 0.175020 0.774630
vt 0.153690 0.783080
vt 0.047060 0.783080
vt 0.460190 0.827240
vt 0.528450 0.827690
vt 0.529890 0.889850
vt 0.459200 0.889400
vt 0.456270 0.797830
vt 0.455720 0.723170
vt 0.528650 0.723170
vt 0.525870 0.797390
vt 0.175400 0.890440
vt 0.143310 0.901120
vt 0.057740 0.901120
vt 0.025650 0.890440
vt 0.057740 0.918940
vt 0.143310 0.918940
vt 0.175400 0.926070
vt 0.025650 0.926070
# 296 texture vertices

vn 0.000000 1.000000 0.000000
vn 0.000000 1.000000 0.000000
vn 0.000000 1.000000 0.000000
vn 0.000000 1.000000 0.000000
vn 0.000000 -0.382684 0.923880
vn 0.000000 0.000000 1.000000
vn 0.000000 0.000000 1.000000
vn 0.000000 -0.382684 0.923880
vn 1.000000 -0.000000 0.000000
vn 1.000000 -0.000000 0.000000
vn 1.000000 -0.000000 0.000000
vn 1.000000 -0.000000 0.000000
vn 0.000000 0.000000 -1.000000
vn 0.000000 0.000000 -1.000000
vn 0.000000 0.000000 -1.000000
vn 0.000000 0.000000 -1.000000
vn -1.000000 0.000000 0.000000
vn -1.000000 0.000000 0.000000
vn -1.000000 0.000000 0.000000
vn -1.000000 0.000000 0.000000
vn 0.000000 0.252725 0.967538
vn 0.000000 0.382684 0.923880
vn 0.000000 0.382684 0.923880
vn 0.000000 0.252725 0.967538
vn 1.000000 0.000000 0.000000
vn 1.000000 0.000000 0.000000
vn 1.000000 0.000000 0.000000
vn 1.000000 0.000000 0.000000
vn 0.000000 0.000000 -1.000000
vn 0.000000 0.000000 -1.000000
vn 0.000000 0.000000 -1.000000
vn 0.000000 0.000000 -1.000000
vn -1.000000 0.000000 0.000000
vn -1.000000 0.000000 0.000000
vn -1.000000 0.000000 0.000000
vn -1.000000 0.000000 0.000000
vn 0.000000 -0.252725 0.967538
vn 0.000000 -0.382684 0.923880
vn 0.000000 -0.382684 0.923880
vn 0.000000 -0.252725 0.967538
vn 1.000000 0.000000 0.000000
vn 1.000000 -0.000000 0.000000
vn 1.000000 -0.000000 0.000000
vn 1.000000 0.000000 0.000000
vn 0.000000 0.000000 -1.000000
vn 0.000000 0.000000 -1.000000
vn 0.000000 0.000000 -1.000000
vn 0.000000 0.000000 -1.000000
vn -1.000000 0.000000 0.000000
vn -1.000000 0.000000 0.000000
vn -1.000000 0.000000 0.000000
vn -1.000000 0.000000 0.000000
vn -0.000000 0.000000 1.000000
vn -0.000000 0.000000 1.000000
vn -0.000000 0.000000 1.000000
vn -0.000000 0.000000 1.000000
vn 1.000000 0.000000 0.000000
vn 1.000000 0.000000 0.000000
vn 1.000000 0.000000 0.000000
vn 1.000000 0.000000 0.000000
vn -0.000000 0.000000 -1.000000
vn -0.000000 0.000000 -1.000000
vn -0.000000 0.000000 -1.000000
vn -0.000000 0.000000 -1.000000
vn -1.000000 0.000000 0.000000
vn -1.000000 0.000000 0.000000
vn -1.000000 0.000000 0.000000
vn -1.000000 0.000000 0.000000
vn 0.000000 1.000000 0.000000
vn 0.000000 1.000000 0.000000
vn 0.000000 1.000000 0.000000
vn 0.000000 1.000000 0.000000
vn 0.000000 -1.000000 0.000000
vn 0.000000 -1.000000 0.000000
vn 0.000000 -1.000000 0.000000
vn 0.000000 -1.000000 0.000000
vn 0.000000 -1.000000 0.000000
vn 0.000000 -1.000000 0.000000
vn 0.000000 -1.000000 0.000000
vn 0.000000 -1.000000 0.000000
vn 0.000000 -1.000000 0.000000
vn 0.000000 -1.000000 0.000000
vn 0.000000 -1.000000 0.000000
vn 0.000000 -1.000000 0.000000
vn 0.000000 -1.000000 0.000000
vn 0.000000 -1.000000 0.000000
vn 0.000000 -1.000000 0.000000
vn 0.000000 -1.000000 0.000000
vn 0.000000 0.382684 0.923880
vn 0.000000 0.000000 1.000000
vn 0.000000 0.000000 1.000000
vn 0.000000 0.382684 0.923880
vn -1.000000 0.000000 0.000000
vn -1.000000 0.000000 0.000000
vn -1.000000 0.000000 0.000000
vn -1.000000 0.000000 0.000000
vn -0.000000 0.000000 -1.000000
vn -0.000000 0.000000 -1.000000
vn 0.000000 0.000000 -1.000000
vn 0.000000 0.000000 -1.000000
vn 1.000000 0.000000 0.000000
vn 1.000000 0.000000 0.000000
vn 1.000000 0.000000 0.000000
vn 1.000000 0.000000 0.000000
vn -1.000000 0.000000 0.000000
vn -1.000000 0.000000 0.000000
vn -1.000000 0.000000 0.000000
vn -1.000000 0.000000 0.000000
vn -0.000000 0.000000 1.000000
vn -0.000000 0.000000 1.000000
vn -0.000000 0.000000 1.000000
vn -0.000000 0.000000 1.000000
vn 1.000000 0.000000 0.000000
vn 1.000000 0.000000 0.000000
vn 1.000000 0.000000 0.000000
vn 1.000000 0.000000 0.000000
vn -0.000000 0.000000 -1.000000
vn -0.000000 0.000000 -1.000000
vn -0.000000 0.000000 -1.000000
vn -0.000000 0.000000 -1.000000
vn 0.000000 -1.000000 -0.000000
vn 0.000000 -1.000000 -0.000000
vn 0.000000 -1.000000 -0.000000
vn 0.000000 -1.000000 -0.000000
vn -0.000000 0.000000 1.000000
vn -0.000000 0.000000 1.000000
vn -0.000000 0.000000 1.000000
vn -0.000000 0.000000 1.000000
vn 1.000000 0.000000 0.000000
vn 1.000000 0.000000 0.000000
vn 1.000000 0.000000 0.000000
vn 1.000000 0.000000 0.000000
vn -0.000000 0.000000 -1.000000
vn -0.000000 0.000000 -1.000000
vn -0.000000 0.000000 -1.000000
vn -0.000000 0.000000 -1.000000
vn -1.000000 0.000000 0.000000
vn -1.000000 0.000000 0.000000
vn -1.000000 0.000000 0.000000
vn -1.000000 0.000000 0.000000
vn 0.000000 1.000000 0.000000
vn 0.000000 1.000000 0.000000
vn 0.000000 1.000000 0.000000
vn 0.000000 1.000000 0.000000
vn -0.000000 0.000000 1.000000
vn -0.000000 0.000000 1.000000
vn -0.000000 0.000000 1.000000
vn -0.000000 0.000000 1.000000
vn 1.000000 0.000000 0.000000
vn 1.000000 0.000000 0.000000
vn 1.000000 0.000000 0.000000
vn 1.000000 0.000000 0.000000
vn -0.000000 0.000000 -1.000000
vn -0.000000 0.000000 -1.000000
vn -0.000000 0.000000 -1.000000
vn -0.000000 0.000000 -1.000000
vn -1.000000 0.000000 0.000000
vn -1.000000 0.000000 0.000000
vn -1.000000 0.000000 0.000000
vn -1.000000 0.000000 0.000000
vn 0.000000 1.000000 0.000000
vn 0.000000 1.000000 0.000000
vn 0.000000 1.000000 0.000000
vn 0.000000 1.000000 0.000000
vn -0.000000 0.000000 1.000000
vn -0.000000 0.000000 1.000000
vn -0.000000 0.000000 1.000000
vn -0.000000 0.000000 1.000000
vn 1.000000 0.000000 0.000000
vn 1.000000 0.000000 0.000000
vn 1.000000 0.000000 0.000000
vn 1.000000 0.000000 0.000000
vn -0.000000 0.000000 -1.000000
vn -0.000000 0.000000 -1.000000
vn -0.000000 0.000000 -1.000000
vn -0.000000 0.000000 -1.000000
vn -1.000000 0.000000 0.000000
vn -1.000000 0.000000 0.000000
vn -1.000000 0.000000 0.000000
vn -1.000000 0.000000 0.000000
vn 0.000000 1.000000 0.000000
vn 0.000000 1.000000 0.000000
vn 0.000000 1.000000 0.000000
vn 0.000000 1.000000 0.000000
vn -0.000000 0.000000 1.000000
vn -0.000000 0.000000 1.000000
vn -0.000000 0.000000 1.000000
vn -0.000000 0.000000 1.000000
vn 1.000000 0.000000 0.000000
vn 1.000000 0.000000 0.000000
vn 1.000000 0.000000 0.000000
vn 1.000000 0.000000 0.000000
vn -0.000000 0.000000 -1.000000
vn -0.000000 0.000000 -1.000000
vn -0.000000 0.000000 -1.000000
vn -0.000000 0.000000 -1.000000
vn -1.000000 0.000000 0.000000
vn -1.000000 0.000000 0.000000
vn -1.000000 0.000000 0.000000
vn -1.000000 0.000000 0.000000
vn 0.000000 1.000000 0.000000
vn 0.000000 1.000000 0.000000
vn 0.000000 1.000000 0.000000
vn 0.000000 1.000000 0.000000
vn -0.000000 0.000000 1.000000
vn -0.000000 0.000000 1.000000
vn -0.000000 0.000000 1.000000
vn -0.000000 0.000000 1.000000
vn 1.000000 0.000000 0.000000
vn 1.000000 0.000000 0.000000
vn 1.000000 0.000000 0.000000
vn 1.000000 0.000000 0.000000
vn -0.000000 0.000000 -1.000000
vn -0.000000 0.000000 -1.000000
vn -0.000000 0.000000 -1.000000
vn -0.000000 0.000000 -1.000000
vn -1.000000 0.000000 0.000000
vn -1.000000 0.000000 0.000000
vn -1.000000 0.000000 0.000000
vn -1.000000 0.000000 0.000000
vn 0.000000 1.000000 0.000000
vn 0.000000 1.000000 0.000000
vn 0.000000 1.000000 0.000000
vn 0.000000 1.000000 0.000000
vn 1.000000 0.000000 0.000000
vn 1.000000 0.000000 0.000000
vn 1.000000 0.000000 0.000000
vn 1.000000 0.000000 0.000000
vn -1.000000 0.000000 0.000000
vn -1.000000 0.000000 0.000000
vn -1.000000 0.000000 0.000000
vn -1.000000 0.000000 0.000000
vn 0.000000 0.000000 -1.000000
vn 0.000000 0.000000 -1.000000
vn 0.000000 0.000000 -1.000000
vn 0.000000 0.000000 -1.000000
vn 0.000000 0.000000 -1.000000
vn 0.000000 0.000000 -1.000000
vn 0.000000 0.000000 -1.000000
vn 0.000000 0.000000 -1.000000
vn 0.000000 1.000000 0.000000
vn 0.000000 1.000000 0.000000
vn 0.000000 1.000000 0.000000
vn 0.000000 1.000000 0.000000
vn 0.000000 -1.000000 0.000000
vn 0.000000 -1.000000 0.000000
vn 0.000000 -1.000000 0.000000
vn 0.000000 -1.000000 0.000000
vn -1.000000 0.000000 0.000000
vn -1.000000 0.000000 0.000000
vn -1.000000 0.000000 0.000000
vn -1.000000 0.000000 0.000000
vn 1.000000 0.000000 0.000000
vn 1.000000 0.000000 0.000000
vn 1.000000 0.000000 0.000000
vn 1.000000 0.000000 0.000000
vn -0.247502 0.391336 0.886340
vn -0.120952 0.191242 0.974062
vn -0.120952 -0.191242 0.974062
vn -0.247502 -0.391336 0.886340
vn 0.247502 -0.391336 0.886340
vn 0.120952 -0.191242 0.974062
vn 0.120952 0.191242 0.974062
vn 0.247502 0.391336 0.886340
vn -0.120952 -0.191242 0.974062
vn -0.120952 0.191242 0.974062
vn 0.000000 -0.252725 0.967538
vn 0.000000 0.252725 0.967538
vn 0.120952 0.191242 0.974062
vn 0.120952 -0.191242 0.974062
vn 0.000000 0.252725 0.967538
vn 0.000000 -0.252725 0.967538
vn -0.120952 0.191242 0.974062
vn 0.120952 0.191242 0.974062
vn 0.000000 -0.252725 0.967538
vn 0.000000 -0.252725 0.967538
vn 0.000000 0.252725 0.967538
vn 0.000000 0.252725 0.967538
vn 0.120952 -0.191242 0.974062
vn -0.120952 -0.191242 0.974062
vn -0.247502 0.391336 0.886340
vn 0.247502 0.391336 0.886340
vn 0.120952 0.191242 0.974062
vn -0.120952 0.191242 0.974062
vn -0.247502 -0.391336 0.886340
vn -0.120952 -0.191242 0.974062
vn 0.120952 -0.191242 0.974062
vn 0.247502 -0.391336 0.886340
vn 0.000000 0.000000 -1.000000
vn 0.000000 0.000000 -1.000000
vn 0.000000 0.000000 -1.000000
vn 0.000000 0.000000 -1.000000
vn 0.000000 0.000000 -1.000000
vn 0.000000 0.000000 -1.000000
vn 0.000000 0.000000 -1.000000
vn 0.000000 0.000000 -1.000000
# 296 vertex normals

g mat1
f 1/1/1 3/2/2 4/3/3 5/4/4
f 11/5/5 3/6/6 1/7/7 10/8/8
f 12/9/9 4/10/10 3/11/11 11/12/12
f 13/13/13 5/14/14 4/15/15 12/16/16
f 10/17/17 1/18/18 5/19/19 13/20/20
f 77/21/21 6/22/22 7/23/23 78/24/24
f 78/25/25 7/26/26 8/27/27 79/28/28
f 79/29/29 8/30/30 9/31/31 80/32/32
f 80/33/33 9/34/34 6/35/35 77/36/36
f 74/37/37 11/38/38 10/39/39 73/40/40
f 75/41/41 12/42/42 11/43/43 74/44/44
f 76/45/45 13/46/46 12/47/47 75/48/48
f 73/49/49 10/50/50 13/51/51 76/52/52
f 15/53/53 17/54/54 16/55/55 14/56/56
f 17/57/57 19/58/58 18/59/59 16/60/60
f 19/61/61 21/62/62 20/63/63 18/64/64
f 21/65/65 15/66/66 14/67/67 20/68/68
f 14/69/69 16/70/70 18/71/71 20/72/72
f 23/73/73 24/74/74 26/75/75 22/76/76
f 27/77/77 2/78/78 22/79/79 26/80/80
f 23/81/81 25/82/82 28/83/83 24/84/84
f 27/85/85 28/86/86 25/87/87 2/88/88
f 6/89/89 2/90/90 25/91/91 7/92/92
f 6/93/93 9/94/94 22/95/95 2/96/96
f 23/97/97 22/98/98 9/99/99 8/100/100
f 7/101/101 25/102/102 23/103/103 8/104/104
f 24/105/105 28/106/106 32/107/107 29/108/108
f 26/109/109 24/110/110 29/111/111 30/112/112
f 27/113/113 26/114/114 30/115/115 31/116/116
f 28/117/117 27/118/118 31/119/119 32/120/120
f 31/121/121 30/122/122 29/123/123 32/124/124
f 34/125/125 36/126/126 35/127/127 33/128/128
f 36/129/129 38/130/130 37/131/131 35/132/132
f 38/133/133 40/134/134 39/135/135 37/136/136
f 40/137/137 34/138/138 33/139/139 39/140/140
f 33/141/141 35/142/142 37/143/143 39/144/144
f 42/145/145 44/146/146 43/147/147 41/148/148
f 44/149/149 46/150/150 45/151/151 43/152/152
f 46/153/153 48/154/154 47/155/155 45/156/156
f 48/157/157 42/158/158 41/159/159 47/160/160
f 41/161/161 43/162/162 45/163/163 47/164/164
f 50/165/165 52/166/166 51/167/167 49/168/168
f 52/169/169 54/170/170 53/171/171 51/172/172
f 54/173/173 56/174/174 55/175/175 53/176/176
f 56/177/177 50/178/178 49/179/179 55/180/180
f 49/181/181 51/182/182 53/183/183 55/184/184
f 58/185/185 60/186/186 59/187/187 57/188/188
f 60/189/189 62/190/190 61/191/191 59/192/192
f 62/193/193 64/194/194 63/195/195 61/196/196
f 64/197/197 58/198/198 57/199/199 63/200/200
f 57/201/201 59/202/202 61/203/203 63/204/204
f 66/205/205 68/206/206 67/207/207 65/208/208
f 68/209/209 70/210/210 69/211/211 67/212/212
f 70/213/213 72/214/214 71/215/215 69/216/216
f 72/217/217 66/218/218 65/219/219 71/220/220
f 65/221/221 67/222/222 69/223/223 71/224/224
f 75/225/225 74/226/226 78/227/227 79/228/228
f 73/229/229 76/230/230 80/231/231 77/232/232
f 76/233/233 88/234/234 87/235/235 80/236/236
f 75/237/237 79/238/238 83/239/239 85/240/240
f 82/241/241 84/242/242 83/243/243 87/244/244
f 88/245/245 85/246/246 86/247/247 81/248/248
f 83/249/249 84/250/250 86/251/251 85/252/252
f 82/253/253 87/254/254 88/255/255 81/256/256
f 81/257/257 92/258/258 91/259/259 82/260/260
f 84/261/261 90/262/262 89/263/263 86/264/264
f 91/265/265 92/266/266 73/267/267 77/268/268
f 89/269/269 90/270/270 78/271/271 74/272/272
f 92/273/273 89/274/274 74/275/275 73/276/276
f 77/277/277 78/278/278 90/279/279 91/280/280
f 81/281/281 86/282/282 89/283/283 92/284/284
f 82/285/285 91/286/286 90/287/287 84/288/288
f 80/289/289 87/290/290 83/291/291 79/292/292
f 85/293/293 88/294/294 76/295/295 75/296/296
# 74 elements

